<svg xmlns="http://www.w3.org/2000/svg" xmlns:xlink="http://www.w3.org/1999/xlink" viewBox="0 0 231.70319 59.9785"><defs><clipPath id="a" transform="translate(-0.0007 0.00046)"><rect width="231.70476" height="59.97887" fill="none"></rect></clipPath></defs><g clip-path="url(#a)"><path d="M206.9022,22.94584c-.0047,1.27525-.99447.61072-1.75729.78153a17.06735,17.06735,0,0,0-5.66258,2.34459c1.32907-2.017,4.05273-4.4154,7.41987-3.12612" transform="translate(-0.0007 0.00046)" fill="#fff"></path><path d="M201.23914,43.64678c-1.47883-6.37391,8.89164-9.64276,3.318-15.03625-.3978.05849-.38141.52882-.77919.585-.30186.82365,1.08337-.04211.77919.78153-2.91553,1.85789-2.1106-4.85063,1.56306-2.73535,2.30247,1.32673,1.73152,6.175.3931,8.00717-.78855,1.0787-2.27673,1.432-3.32267,2.73535-1.418,1.76663-.89385,3.92871-1.95148,5.66258" transform="translate(-0.0007 0.00046)" fill="#fff"></path><path d="M178.02468,36.90925c.85406,0,1.22612-1.49755,1.75493-1.17.04913.86343.14273,1.68006.97808,1.75493.97574-1.62623,2.2931-2.91318,2.5388-5.27181-.83535-.84237-2.94829-.26207-3.51688.38843-.32057-2.92021,4.58622-5.00273,2.34459-8.58981,1.6239-4.23523,4.70322-7.015,7.03142-10.546-.29249-.76984-.81429.833-.97808.19655-.35333-1.301-.95234-3.311-.39077-4.88339,1.067,1.14655,1.24249,3.18461,3.32267,3.32033,1.1255-6.03228,6.15631-8.16394,11.71593-9.76678-.74643,1.46712-1.93979,2.48732-1.95382,4.68918,4.67046-1.70579,14.74141-2.56454,19.14045.585-5.54325.64113-11.131,1.23781-13.67209,4.88338,6.81382-3.59878,16.52912-.30418,19.52888,4.68684C217.6019,15.3236,206.2276,16.4,200.28657,20.11339c-1.09976.68793-2.21823,1.56773-2.34225,2.9319-.09827.87513,1.01318.54754,1.36651.97574-.7909,2.26971-2.946,3.17292-4.29607,4.88105,2.92489-1.63326,5.63449-3.47944,5.85679-7.81061,11.524-4.70322,30.6411-2.59028,30.4656,11.51937-2.94827-6.06505-10.52725-11.48662-19.52888-8.3956,7.39178-.87746,10.68636,2.37267,13.864,7.42219,2.24631,3.56134,4.49262,8.56173,3.12612,11.91248-1.56774-9.04141-6.32009-15.9418-15.62357-16.59931,7.59534,2.13867,14.17284,10.59276,13.08477,20.11385-.11231.9734-1.94447,2.75641-2.733,3.12612.79322-10.24178-3.3297-17.23811-10.15521-20.507,5.30458,3.41159,10.46876,13.37024,7.02909,22.45844.01871-3.72045-.32057-8.62022-2.53646-10.74018,1.98191,5.08462,1.87192,12.2424-2.54115,15.2328-2.29544,1.5537-4.977,1.59348-7.81061,2.733-.32525-.52414.87279-1.411,1.56306-2.148,1.92809-2.05912,4.46923-4.91849,4.881-8.59214a15.78255,15.78255,0,0,0-2.34458-10.546c.47033,3.22673,2.31652,6.21948,1.36884,10.15286-.77685,3.22206-4.32649,7.07121-7.03142,9.376-1.70344,1.45074-2.44286,2.5505-4.881,2.34224-.41183-5.74915,1.91638-8.75827,3.51454-12.49745-2.22291,2.41011-7.39646,6.80446-4.68683,12.30324a30.04766,30.04766,0,0,1-21.09194-7.6164c-6.1095-5.4824-10.79867-13.26026-9.95866-24.99724C169.95433,11.66632,183.46964.27565,200.28657-.00046c-4.43647,1.8766-8.45175,4.17673-9.95866,8.9829-1.60985-.63645-1.70812-3.61281-1.17229-5.27181-2.35862,1.659-3.91466,5.00272-3.12378,9.17712-.98977.18485-2.0404.30419-2.5388.97808.84.52414,1.83918.89384,2.733,1.36651.709-.124-.4516-.91257.19422-.97808.40715-.11466,1.28462.24335,1.3665-.19422-2.22524,3.24312-6.90506,5.72108-6.83253,11.91248-1.63559,2.74939-6.51195,7.23967-2.92956,10.93673m19.52888-1.56306a16.489,16.489,0,0,0-6.44412,4.68683c-.67856.91725-.69027,2.11762-1.75961,2.34459-1.5654.33227-2.88275-1.13017-3.51454-2.733,1.89766-1.9468,3.12144-5.14312,6.24989-5.66492.84471-.14039,2.15507.82833,2.53882-.585-3.573-2.39841-7.31925,2.73067-9.376,4.29607.117-.50776-.07721-.702-.585-.58732-.04212.15443-.1638.227-.39077.19655-.33694.65985-.05616.84705.39077,1.1723-2.27673,1.4601-4.31948-1.29163-6.05334-.97809a7.77434,7.77434,0,0,0,6.05334,2.92957c1.13252,3.52624,7.06651,5.08462,10.546,3.32033a18.8002,18.8002,0,0,1-9.37368,7.02908c2.17612.0936,3.54262-.62241,5.27415-.9734-1.17229,2.21122-2.96466,4.62834-2.34459,8.00717.66689.04914.93831.49372,1.75727.39076a5.3052,5.3052,0,0,1,2.92957-3.90764c-.19656,1.27525-1.88128,4.20715-.19422,4.881a25.8634,25.8634,0,0,1,3.32035-8.78635c.53817-.77451,1.2729-1.51158,1.17-2.15038-2.53646.0702-3.70407,2.54348-5.07761,3.12612.57094-1.96786,1.92108-3.15654,2.53881-5.0776-.61773-.08424-.99213,1.07168-1.36652.58732,2.03339-2.52477,4.20015-4.91381,5.07761-8.59449-1.68941.52414-1.7058,2.72132-3.12611,3.51454.79322-1.81108,2.35628-3.89126,1.75961-6.4441m-10.93674.3931c-.66453-.32056-1.2495.20124-1.36885.9734a.939.939,0,0,0,1.36885-.9734m13.66975-21.87346c-.03744,1.35247-1.02255,1.97488-1.75727,3.12378-1.75493,2.74-3.98019,6.31541-1.95148,8.00716a5.2717,5.2717,0,0,1,4.09951-6.24989V16.98961c.56625-.21293,1.38522-.17549,1.95383-.39076.60134-2.719,1.94446-5.91062.38842-8.00717-2.6324-3.545-10.87824.88214-10.54364,4.10186.22464,2.18313,4.041,3.36011,6.63834,2.34224a2.216,2.216,0,0,0-1.95149-2.733c-.32524.61306.72537.79791.19422.97574a1.06677,1.06677,0,0,1-.97574-.97574c1.26119-2.85,3.97549-.9149,3.9053,1.56306m-16.59931,9.76444c.55221.20357,1.34076-.32291,1.3665,0,.964,2.06146-1.45543,3.26651-1.56072,5.46836.93129-.17783,1.03658-1.17463,1.36651-1.95382,2.01232-2.28375,5.19928-4.43413,4.49028-8.78869-2.05911,1.58411-3.6058,3.68535-5.66257,5.27415m15.62357,2.53646a17.13362,17.13362,0,0,1,5.66257-2.34225c.7628-.17081,1.7526.49372,1.75727-.77919-3.36713-1.28929-6.09077,1.10912-7.41984,3.12144m-.39077,1.75961c1.28227-1.45074,4.16036-1.308,6.24756-1.95382-1.97957-1.50457-5.52219-.117-6.24756,1.95382m4.09952,10.1552c1.04594-1.301,2.53178-1.65665,3.32033-2.73535,1.33842-1.83215,1.90937-6.68044-.39077-8.00717-3.67365-2.11527-4.47858,4.59324-1.56071,2.73536.30184-.82365-1.08571.04211-.78153-.78154.39778-.05849.38375-.52881.78153-.58731,5.57131,5.39817-4.79916,8.66468-3.32033,15.03859,1.05763-1.73387.53349-3.89595,1.95148-5.66258m-8.20137,16.99008c-.14742,1.14655-.39312,4.05272,1.17229,4.49028.80492-5.11738,3.3367-9.55151,4.68683-13.47319-1.93745,2.17611-5.35371,5.07526-5.85912,8.98291" transform="translate(-0.0007 0.00046)" fill="#ba2426"></path><path d="M206.3165.29272a44.72035,44.72035,0,0,1,8.00716,2.34459c-3.39755.17315-7.86443.64114-10.74252,1.95148A8.85842,8.85842,0,0,1,206.3165.29272" transform="translate(-0.0007 0.00046)" fill="#ba2426"></path><path d="M221.35346,8.88557c.30184-.28547.17315-.99914.19655-1.56306.96169.66687,1.57709,1.68006,2.53646,2.34225-.59669.20123-2.024-.44224-2.733-.77919" transform="translate(-0.0007 0.00046)" fill="#ba2426"></path><path d="M217.05716,9.86225c5.43092-.87279,9.5983,1.20739,10.93672,5.0776.27142.234.01639.07722-.19655,0a18.78445,18.78445,0,0,0-10.74017-5.0776" transform="translate(-0.0007 0.00046)" fill="#ba2426"></path><path d="M219.5969,17.86848c5.8053-.26909,12.15816,2.68154,12.10668,7.6164-2.15739-4.41541-6.35284-6.79743-12.10668-7.6164" transform="translate(-0.0007 0.00046)" fill="#ba2426"></path><path d="M223.69781,26.26664a12.88283,12.88283,0,0,1,7.6164,11.13094c-1.86492-4.385-3.924-8.57342-7.6164-11.13094" transform="translate(-0.0007 0.00046)" fill="#ba2426"></path></g><polygon points="14.25 14.393 0 45.745 9.072 45.745 23.322 14.393 14.25 14.393" fill="#ba2426"></polygon><g clip-path="url(#a)"><path d="M36.10151,41.18426a10.60676,10.60676,0,0,1-1.425,2.32821,5.48943,5.48943,0,0,1-1.75728,1.39926,7.01332,7.01332,0,0,1-2.25567.66454,22.3081,22.3081,0,0,1-2.92254.16847H11.16277l9.025-19.71373H34.15471L35.341,23.13187a1.34734,1.34734,0,0,0,.14273-.61774,1.38217,1.38217,0,0,0-.4516-1.0436,1.68326,1.68326,0,0,0-1.20973-.4282H22.42007l2.99274-6.65H41.85066a5.092,5.092,0,0,1,3.30162.95,3.09109,3.09109,0,0,1,1.16293,2.51774,4.62609,4.62609,0,0,1-.5218,1.94681L42.0402,28.07375a4.1242,4.1242,0,0,1-1.52094,1.92341,5.08458,5.08458,0,0,1-2.61134.54519h-.23867a3.20179,3.20179,0,0,1,1.61453,2.80321,3.98215,3.98215,0,0,1-.117.87981,6.14536,6.14536,0,0,1-.4048,1.11614Zm-6.03228-6.50963a1.58824,1.58824,0,0,0,.14273-.61539,1.3919,1.3919,0,0,0-.4516-1.04594,1.693,1.693,0,0,0-1.21207-.4282H26.03054l-2.8968,6.36455h5.03548" transform="translate(-0.0007 0.00046)" fill="#ba2426"></path></g><path d="M44.93607,26.03148H61.98932l-3.13548,6.88635H50.87475l-2.70727,5.93635h7.98143l-3.13548,6.891H35.95784ZM64.128,21.27913H47.07475l3.13547-6.88635H67.26347" transform="translate(-0.0007 0.00046)" fill="#ba2426"></path><g clip-path="url(#a)"><path d="M73.96053,34.7715a1.35435,1.35435,0,0,0,.14273-.61773,1.41143,1.41143,0,0,0-.45161-1.02254,1.6478,1.6478,0,0,0-1.21207-.4516H70.16051L64.12589,45.74334H55.05407l8.88229-19.47506h14.0137l1.28228-2.99275a1.77553,1.77553,0,0,0,.14273-.71367,1.29071,1.29071,0,0,0-.42821-.9734,1.72646,1.72646,0,0,0-1.23547-.40246H66.21777l3.08633-6.7951H85.73962a5.08339,5.08339,0,0,1,3.30161.95235,3.08186,3.08186,0,0,1,1.16527,2.5154,4.63511,4.63511,0,0,1-.5218,1.94914L84.88555,30.44735a4.36681,4.36681,0,0,1-1.56774,1.92341,4.97439,4.97439,0,0,1-2.56453.54754h-.28547a3.20046,3.20046,0,0,1,1.61687,2.80087,3.96383,3.96383,0,0,1-.11933.8798,6.08231,6.08231,0,0,1-.40481,1.11614l-3.65727,8.02823h-8.8355" transform="translate(-0.0007 0.00046)" fill="#ba2426"></path></g><path d="M89.16126,45.74521H80.0871l8.97823-19.71373h17.05325l-3.13547,6.88635H95.004Zm19.096-24.46608H91.204l3.13547-6.88635h17.05325" transform="translate(-0.0007 0.00046)" fill="#ba2426"></path><polyline points="110.632 38.856 119.088 38.856 115.953 45.745 98.424 45.745 112.675 14.393 121.749 14.393" fill="#ba2426"></polyline><path d="M125.53188,26.03148h17.05325l-3.13548,6.88635h-7.97909l-2.70728,5.93635h7.98143l-3.13782,6.891H116.55364Zm19.19192-4.75235H127.67055l3.13548-6.88635h17.05324" transform="translate(-0.0007 0.00046)" fill="#ba2426"></path><g clip-path="url(#a)"><path d="M148.19085,42.37106a7.36718,7.36718,0,0,1-3.51455,2.61134,15.504,15.504,0,0,1-5.17821.76281h-5.17822l3.13548-6.891h1.52093a5.20039,5.20039,0,0,0,4.41775-1.80407l6.46049-8.45409L145.1513,14.39278h8.36049l2.18313,7.55322,3.04189-4.70322a5.4407,5.4407,0,0,1,2.49434-2.18547,9.69516,9.69516,0,0,1,3.8234-.66453h6.4137l-3.13782,6.88635h-.80493q-3.18345,0-4.41773,1.80407l-4.5605,6.50962,5.321,16.15239h-8.40964l-2.94359-9.1701" transform="translate(-0.0007 0.00046)" fill="#ba2426"></path><path d="M4.46712,52.71556a2.28233,2.28233,0,0,0-.20591-.99914,1.56683,1.56683,0,0,0-.592-.67389,1.71324,1.71324,0,0,0-.9383-.24335H1.74347v3.85149h.98744a1.699,1.699,0,0,0,.94766-.25271,1.58567,1.58567,0,0,0,.58732-.69028,2.37079,2.37079,0,0,0,.20123-.99212M.60861,55.64513V49.80238h2.1223a3.02031,3.02031,0,0,1,1.59581.39076,2.49545,2.49545,0,0,1,.96405,1.0553,3.33082,3.33082,0,0,1,.32056,1.46712A3.2117,3.2117,0,0,1,5.258,54.26224a2.49779,2.49779,0,0,1-.99914,1.0202,3.06269,3.06269,0,0,1-1.528.36269Z" transform="translate(-0.0007 0.00046)" fill="#1d1d1b"></path></g><rect x="6.49722" y="49.80307" width="1.13486" height="5.84275" fill="#1d1d1b"></rect><g clip-path="url(#a)"><path d="M12.33342,51.33385a1.333,1.333,0,0,0-.21059-.15678,2.34767,2.34767,0,0,0-.3697-.18953,3.852,3.852,0,0,0-.47267-.15911,1.9444,1.9444,0,0,0-.51946-.0702,1.17132,1.17132,0,0,0-.69495.17081.57.57,0,0,0-.234.48436.497.497,0,0,0,.14741.37673,1.24567,1.24567,0,0,0,.44459.23633c.19889.06552.44458.13571.74175.21293a5.29551,5.29551,0,0,1,.99914.33929,1.61749,1.61749,0,0,1,.65049.52414,1.47214,1.47214,0,0,1,.22463.8564,1.71006,1.71006,0,0,1-.17081.79791,1.46553,1.46553,0,0,1-.47734.53584,2.17409,2.17409,0,0,1-.69261.29951,3.43665,3.43665,0,0,1-.82131.09359,4.23655,4.23655,0,0,1-.87279-.09125,4.47643,4.47643,0,0,1-.84-.25739,3.7019,3.7019,0,0,1-.73941-.40949l.50074-.97808a1.63941,1.63941,0,0,0,.26441.19422,3.46568,3.46568,0,0,0,.461.23867,3.9895,3.9895,0,0,0,.592.20123,2.65021,2.65021,0,0,0,.6505.08189,1.29781,1.29781,0,0,0,.69963-.15443.53045.53045,0,0,0,.04914-.84939,1.72316,1.72316,0,0,0-.52648-.25739c-.227-.07487-.49138-.15443-.79791-.24335a4.8157,4.8157,0,0,1-.92192-.3463,1.3697,1.3697,0,0,1-.55222-.489,1.39836,1.39836,0,0,1-.18017-.73707,1.70968,1.70968,0,0,1,.28313-1.00382,1.7737,1.7737,0,0,1,.76983-.61306,2.68029,2.68029,0,0,1,1.07869-.21059,3.21274,3.21274,0,0,1,.77685.09125,3.8813,3.8813,0,0,1,.6856.23867,4.05956,4.05956,0,0,1,.57795.32057Z" transform="translate(-0.0007 0.00046)" fill="#1d1d1b"></path><path d="M13.54292,52.67485a2.90789,2.90789,0,0,1,.19421-1.04828,3.0528,3.0528,0,0,1,.56158-.93831,2.75355,2.75355,0,0,1,.90555-.67623,2.85916,2.85916,0,0,1,1.21909-.25037,2.679,2.679,0,0,1,1.39458.35333,2.26547,2.26547,0,0,1,.87513.92192l-.87045.60136a1.40133,1.40133,0,0,0-.89852-.79323,1.85516,1.85516,0,0,0-.5335-.07956,1.54916,1.54916,0,0,0-.74643.17316,1.62543,1.62543,0,0,0-.52882.45394,1.924,1.924,0,0,0-.31823.62475,2.43167,2.43167,0,0,0-.10295.69028,2.27748,2.27748,0,0,0,.124.74409,2.0596,2.0596,0,0,0,.34865.63411,1.63868,1.63868,0,0,0,.5452.43522,1.50444,1.50444,0,0,0,.695.16146,1.76942,1.76942,0,0,0,.54988-.09126,1.50066,1.50066,0,0,0,.51946-.28781,1.31327,1.31327,0,0,0,.3697-.5101l.929.53584a1.716,1.716,0,0,1-.56392.73941,2.77483,2.77483,0,0,1-.87513.461,3.09714,3.09714,0,0,1-.9617.15677A2.5084,2.5084,0,0,1,15.23,55.42658a2.87409,2.87409,0,0,1-.89384-.69027,3.27248,3.27248,0,0,1-.58264-.97107,2.97943,2.97943,0,0,1-.21059-1.09039" transform="translate(-0.0007 0.00046)" fill="#1d1d1b"></path><path d="M20.33965,52.72375a2.33865,2.33865,0,0,0,.11466.73239,1.99889,1.99889,0,0,0,.33227.62944,1.6393,1.6393,0,0,0,1.98892.4282,1.58112,1.58112,0,0,0,.5335-.4516,2.1138,2.1138,0,0,0,.32525-.63412,2.29236,2.29236,0,0,0,.11-.70431,2.23825,2.23825,0,0,0-.11934-.72771,2.06064,2.06064,0,0,0-.33694-.62476,1.53353,1.53353,0,0,0-1.24483-.59667,1.54364,1.54364,0,0,0-.73708.16847,1.61632,1.61632,0,0,0-.53115.44926,2.0368,2.0368,0,0,0-.32525.62476,2.334,2.334,0,0,0-.11.70665m1.6941,2.96233a2.7067,2.7067,0,0,1-1.16528-.2457,2.79381,2.79381,0,0,1-.89618-.67155,3.21411,3.21411,0,0,1-.5803-.95468,3.016,3.016,0,0,1-.20591-1.0904,2.86568,2.86568,0,0,1,.22-1.1138,3.17573,3.17573,0,0,1,.599-.94766,2.85244,2.85244,0,0,1,.90554-.65751,2.6961,2.6961,0,0,1,1.1489-.24335,2.62515,2.62515,0,0,1,1.15591.25505,2.766,2.766,0,0,1,.89151.68325,3.21053,3.21053,0,0,1,.57561.95468,2.97419,2.97419,0,0,1-.007,2.1925,3.12313,3.12313,0,0,1-.59667.94766,2.80391,2.80391,0,0,1-.90555.65283,2.70914,2.70914,0,0,1-1.13953.23868" transform="translate(-0.0007 0.00046)" fill="#1d1d1b"></path><path d="M29.24113,51.33385a1.333,1.333,0,0,0-.21059-.15678,2.34723,2.34723,0,0,0-.3697-.18953,3.852,3.852,0,0,0-.47267-.15911,1.9444,1.9444,0,0,0-.51946-.0702,1.17134,1.17134,0,0,0-.695.17081.57.57,0,0,0-.234.48436.49694.49694,0,0,0,.14742.37673,1.24561,1.24561,0,0,0,.44458.23633c.19889.06552.44458.13571.74175.21293a5.29551,5.29551,0,0,1,.99914.33929,1.61749,1.61749,0,0,1,.65049.52414,1.47214,1.47214,0,0,1,.22463.8564,1.71006,1.71006,0,0,1-.17081.79791,1.46553,1.46553,0,0,1-.47734.53584,2.17409,2.17409,0,0,1-.69261.29951,3.43665,3.43665,0,0,1-.82131.09359,4.23655,4.23655,0,0,1-.87279-.09125,4.47643,4.47643,0,0,1-.84-.25739,3.7019,3.7019,0,0,1-.73941-.40949l.50074-.97808a1.63941,1.63941,0,0,0,.26441.19422,3.4663,3.4663,0,0,0,.461.23867,3.9895,3.9895,0,0,0,.592.20123,2.65021,2.65021,0,0,0,.6505.08189,1.29781,1.29781,0,0,0,.69963-.15443.53045.53045,0,0,0,.04914-.84939,1.72316,1.72316,0,0,0-.52648-.25739c-.22463-.07487-.49138-.15443-.79791-.24335a4.8157,4.8157,0,0,1-.92192-.3463,1.36977,1.36977,0,0,1-.55222-.489,1.39836,1.39836,0,0,1-.18017-.73707,1.70968,1.70968,0,0,1,.28313-1.00382,1.7737,1.7737,0,0,1,.76983-.61306,2.68029,2.68029,0,0,1,1.07869-.21059,3.19884,3.19884,0,0,1,.77685.09125,3.881,3.881,0,0,1,.6856.23867,4.05956,4.05956,0,0,1,.57795.32057Z" transform="translate(-0.0007 0.00046)" fill="#1d1d1b"></path></g><path d="M35.748,53.39039l-.80493-2.4101-.80727,2.4101ZM34.3674,49.80331h1.15124l2.148,5.84275H36.49906l-.4867-1.45776H33.869l-.489,1.45776H32.21235Z" transform="translate(-0.0007 0.00046)" fill="#1d1d1b"></path><g clip-path="url(#a)"><path d="M41.87032,53.92646a.88311.88311,0,0,0-.08892-.40012.76914.76914,0,0,0-.24335-.28079.61719.61719,0,0,0-.351-.10062H39.44383v1.53732h1.68708a.71489.71489,0,0,0,.37438-.10295.73732.73732,0,0,0,.26675-.27611.74818.74818,0,0,0,.09828-.37673m-2.42649-3.15185v1.4718h1.51392a.69992.69992,0,0,0,.34631-.08892.70734.70734,0,0,0,.25037-.25505A.78485.78485,0,0,0,41.648,51.507a.81331.81331,0,0,0-.08657-.38843.63281.63281,0,0,0-.22931-.25271.59266.59266,0,0,0-.32525-.09125Zm3.57071,3.36479a1.31168,1.31168,0,0,1-.25506.826,1.608,1.608,0,0,1-.68793.50776,2.51849,2.51849,0,0,1-.94064.17082H38.309V49.80355h3.12611a1.17745,1.17745,0,0,1,.71134.21761,1.4316,1.4316,0,0,1,.461.55924,1.6458,1.6458,0,0,1,.16145.71133,1.58954,1.58954,0,0,1-.21527.79791,1.28964,1.28964,0,0,1-.62475.55923,1.50345,1.50345,0,0,1,.79323.53584,1.5402,1.5402,0,0,1,.29249.95469" transform="translate(-0.0007 0.00046)" fill="#1d1d1b"></path><path d="M45.03809,52.69216h1.42266a.60853.60853,0,0,0,.37907-.12869.88907.88907,0,0,0,.26441-.34163,1.13089,1.13089,0,0,0,.09827-.47734,1.00032,1.00032,0,0,0-.11465-.489.96549.96549,0,0,0-.29249-.33227.642.642,0,0,0-.38375-.124H45.03809Zm-1.13486,2.953V49.80238h2.58326a1.68431,1.68431,0,0,1,.74409.16613,1.88718,1.88718,0,0,1,.59434.44458,2.05271,2.05271,0,0,1,.38608.62476,1.89664,1.89664,0,0,1,.13572.70665,1.97493,1.97493,0,0,1-.1287.71133,1.72322,1.72322,0,0,1-.365.59668,1.67913,1.67913,0,0,1-.55924.39544l1.33141,2.19718H47.37566l-1.20272-1.95851H45.03809v1.95851Z" transform="translate(-0.0007 0.00046)" fill="#1d1d1b"></path></g><path d="M52.34351,53.39039l-.80493-2.4101-.80726,2.4101ZM50.963,49.80331H52.1142l2.148,5.84275H53.09463l-.48671-1.45776H50.46457l-.489,1.45776H48.80791Z" transform="translate(-0.0007 0.00046)" fill="#1d1d1b"></path><g clip-path="url(#a)"><path d="M58.38422,51.33385a1.333,1.333,0,0,0-.21059-.15678,2.34737,2.34737,0,0,0-.36971-.18953,3.85122,3.85122,0,0,0-.47266-.15911,1.9444,1.9444,0,0,0-.51946-.0702,1.17132,1.17132,0,0,0-.69495.17081.57.57,0,0,0-.234.48436.49694.49694,0,0,0,.14742.37673,1.24552,1.24552,0,0,0,.44458.23633c.19889.06552.44458.13571.74175.21293a5.29551,5.29551,0,0,1,.99914.33929,1.61749,1.61749,0,0,1,.65049.52414,1.47214,1.47214,0,0,1,.22463.8564,1.71006,1.71006,0,0,1-.17081.79791,1.46553,1.46553,0,0,1-.47734.53584,2.17409,2.17409,0,0,1-.69261.29951,3.43665,3.43665,0,0,1-.82131.09359,4.23655,4.23655,0,0,1-.87279-.09125,4.4762,4.4762,0,0,1-.84-.25739,3.7019,3.7019,0,0,1-.73941-.40949l.50074-.97808a1.63941,1.63941,0,0,0,.26441.19422,3.46568,3.46568,0,0,0,.461.23867,3.9895,3.9895,0,0,0,.592.20123,2.65021,2.65021,0,0,0,.6505.08189,1.29781,1.29781,0,0,0,.69963-.15443.53045.53045,0,0,0,.04914-.84939,1.72316,1.72316,0,0,0-.52648-.25739c-.227-.07487-.49138-.15443-.79791-.24335a4.81545,4.81545,0,0,1-.92192-.3463,1.3697,1.3697,0,0,1-.55222-.489,1.39836,1.39836,0,0,1-.18017-.73707,1.70968,1.70968,0,0,1,.28313-1.00382,1.7737,1.7737,0,0,1,.76983-.61306,2.68029,2.68029,0,0,1,1.07869-.21059,3.21274,3.21274,0,0,1,.77685.09125,3.88091,3.88091,0,0,1,.68559.23867,4.05914,4.05914,0,0,1,.578.32057Z" transform="translate(-0.0007 0.00046)" fill="#1d1d1b"></path></g><rect x="59.94541" y="49.80307" width="1.13486" height="5.84275" fill="#1d1d1b"></rect><polygon points="62.901 49.804 64.48 54.296 66.043 49.804 67.237 49.804 65.023 55.647 63.93 55.647 61.707 49.804 62.901 49.804" fill="#1d1d1b"></polygon><g clip-path="url(#a)"><path d="M68.66133,52.72375a2.33894,2.33894,0,0,0,.11466.73239,1.99889,1.99889,0,0,0,.33227.62944,1.6393,1.6393,0,0,0,1.98892.4282,1.58112,1.58112,0,0,0,.5335-.4516,2.1138,2.1138,0,0,0,.32525-.63412,2.29236,2.29236,0,0,0,.11-.70431,2.23825,2.23825,0,0,0-.11934-.72771,2.06042,2.06042,0,0,0-.33694-.62476,1.53353,1.53353,0,0,0-1.24483-.59667,1.54357,1.54357,0,0,0-.73707.16847,1.61635,1.61635,0,0,0-.53116.44926,2.0368,2.0368,0,0,0-.32525.62476,2.33433,2.33433,0,0,0-.11.70665m1.6941,2.96233a2.70673,2.70673,0,0,1-1.16528-.2457,2.79392,2.79392,0,0,1-.89618-.67155,3.16654,3.16654,0,0,1-.5803-.95468,3.016,3.016,0,0,1-.20591-1.0904,2.86586,2.86586,0,0,1,.21995-1.1138,3.17593,3.17593,0,0,1,.599-.94766,2.85244,2.85244,0,0,1,.90554-.65751,2.6961,2.6961,0,0,1,1.1489-.24335,2.62515,2.62515,0,0,1,1.15591.25505,2.76587,2.76587,0,0,1,.89151.68325,3.21077,3.21077,0,0,1,.57562.95468,2.97419,2.97419,0,0,1-.007,2.1925,3.12335,3.12335,0,0,1-.59668.94766,2.804,2.804,0,0,1-.90554.65283,2.70922,2.70922,0,0,1-1.13954.23868" transform="translate(-0.0007 0.00046)" fill="#1d1d1b"></path><path d="M77.56328,51.33385a1.33347,1.33347,0,0,0-.21059-.15678,2.34737,2.34737,0,0,0-.36971-.18953,3.8518,3.8518,0,0,0-.47266-.15911,1.94451,1.94451,0,0,0-.51946-.0702,1.1713,1.1713,0,0,0-.69495.17081.57.57,0,0,0-.234.48436.497.497,0,0,0,.14741.37673,1.2457,1.2457,0,0,0,.44458.23633c.19889.06552.44458.13571.74176.21293a5.29515,5.29515,0,0,1,.99913.33929,1.61745,1.61745,0,0,1,.6505.52414,1.47221,1.47221,0,0,1,.22463.8564,1.70993,1.70993,0,0,1-.17082.79791,1.46553,1.46553,0,0,1-.47734.53584,2.174,2.174,0,0,1-.69261.29951,3.43659,3.43659,0,0,1-.82131.09359,4.23653,4.23653,0,0,1-.87278-.09125,4.476,4.476,0,0,1-.84-.25739,3.7017,3.7017,0,0,1-.73942-.40949l.50074-.97808a1.64034,1.64034,0,0,0,.26441.19422,3.46692,3.46692,0,0,0,.461.23867,3.99,3.99,0,0,0,.592.20123,2.65007,2.65007,0,0,0,.65049.08189,1.29787,1.29787,0,0,0,.69964-.15443.53044.53044,0,0,0,.04913-.84939,1.7231,1.7231,0,0,0-.52647-.25739c-.227-.07487-.49139-.15443-.79791-.24335a4.81557,4.81557,0,0,1-.92193-.3463,1.36974,1.36974,0,0,1-.55221-.489,1.39836,1.39836,0,0,1-.18018-.73707,1.70975,1.70975,0,0,1,.28313-1.00382,1.77376,1.77376,0,0,1,.76983-.61306,2.68034,2.68034,0,0,1,1.0787-.21059,3.21274,3.21274,0,0,1,.77685.09125,3.88091,3.88091,0,0,1,.68559.23867,4.05956,4.05956,0,0,1,.578.32057Z" transform="translate(-0.0007 0.00046)" fill="#1d1d1b"></path><path d="M84.9595,52.71556a2.28219,2.28219,0,0,0-.20592-.99914,1.56675,1.56675,0,0,0-.592-.67389,1.71325,1.71325,0,0,0-.93831-.24335h-.98744v3.85149h.98744a1.699,1.699,0,0,0,.94766-.25271,1.58562,1.58562,0,0,0,.58733-.69028,2.37079,2.37079,0,0,0,.20123-.99212M81.101,55.64513V49.80238h2.12229a3.02032,3.02032,0,0,1,1.59582.39076,2.49551,2.49551,0,0,1,.96405,1.0553,3.33082,3.33082,0,0,1,.32056,1.46712,3.2117,3.2117,0,0,1-.35332,1.54668,2.49775,2.49775,0,0,1-.99915,1.0202,3.06261,3.06261,0,0,1-1.528.36269Z" transform="translate(-0.0007 0.00046)" fill="#1d1d1b"></path></g><polygon points="91.048 54.65 91.048 55.644 86.991 55.644 86.991 49.804 90.973 49.804 90.973 50.798 88.128 50.798 88.128 52.207 90.587 52.207 90.587 53.127 88.128 53.127 88.128 54.65 91.048 54.65" fill="#1d1d1b"></polygon><path d="M96.88062,53.39039l-.80492-2.4101-.80727,2.4101Zm-1.38054-3.58708h1.15123l2.148,5.84275H97.63174L97.145,54.1883H95.00168l-.489,1.45776H93.345Z" transform="translate(-0.0007 0.00046)" fill="#1d1d1b"></path><polygon points="99.44 55.646 99.44 49.803 100.575 49.803 100.575 54.651 103.554 54.651 103.554 55.646 99.44 55.646" fill="#1d1d1b"></polygon><polygon points="108.615 50.799 106.747 50.799 106.747 55.645 105.619 55.645 105.619 50.799 103.752 50.799 103.752 49.805 108.615 49.805 108.615 50.799" fill="#1d1d1b"></polygon><g clip-path="url(#a)"><path d="M110.13808,52.72375a2.33893,2.33893,0,0,0,.11465.73239,1.99909,1.99909,0,0,0,.33227.62944,1.6393,1.6393,0,0,0,1.98892.4282,1.581,1.581,0,0,0,.5335-.4516,2.11357,2.11357,0,0,0,.32525-.63412,2.29208,2.29208,0,0,0,.11-.70431,2.23825,2.23825,0,0,0-.11934-.72771,2.06064,2.06064,0,0,0-.33694-.62476,1.53353,1.53353,0,0,0-1.24484-.59667,1.54363,1.54363,0,0,0-.73707.16847,1.61646,1.61646,0,0,0-.53116.44926,2.037,2.037,0,0,0-.32524.62476,2.334,2.334,0,0,0-.11.70665m1.6941,2.96233a2.70667,2.70667,0,0,1-1.16528-.2457,2.7937,2.7937,0,0,1-.89618-.67155,3.2139,3.2139,0,0,1-.5803-.95468,3.01606,3.01606,0,0,1-.20592-1.0904,2.86587,2.86587,0,0,1,.22-1.1138,3.17553,3.17553,0,0,1,.599-.94766,2.8524,2.8524,0,0,1,.90553-.65751,2.69616,2.69616,0,0,1,1.1489-.24335,2.62519,2.62519,0,0,1,1.15592.25505,2.76583,2.76583,0,0,1,.8915.68325,3.21077,3.21077,0,0,1,.57562.95468,2.97419,2.97419,0,0,1-.007,2.1925,3.12335,3.12335,0,0,1-.59668.94766,2.80387,2.80387,0,0,1-.90554.65283,2.70917,2.70917,0,0,1-1.13953.23868" transform="translate(-0.0007 0.00046)" fill="#1d1d1b"></path><path d="M118.66868,52.69216h1.425a.60677.60677,0,0,0,.37672-.12869.88909.88909,0,0,0,.26442-.34163,1.131,1.131,0,0,0,.09827-.47734,1.00021,1.00021,0,0,0-.11466-.489.96528.96528,0,0,0-.29249-.33227.642.642,0,0,0-.38374-.124h-1.37353Zm-1.13485,2.953V49.80238h2.58325a1.68431,1.68431,0,0,1,.74409.16613,1.88707,1.88707,0,0,1,.59434.44458,2.05274,2.05274,0,0,1,.38609.62476,1.89683,1.89683,0,0,1,.13571.70665,1.97514,1.97514,0,0,1-.12869.71133,1.72352,1.72352,0,0,1-.365.59668,1.67917,1.67917,0,0,1-.55925.39544l1.33141,2.19718h-1.24951l-1.20271-1.95851h-1.13486v1.95851Z" transform="translate(-0.0007 0.00046)" fill="#1d1d1b"></path></g><polygon points="127.061 54.65 127.061 55.644 123.004 55.644 123.004 49.804 126.986 49.804 126.986 50.798 124.141 50.798 124.141 52.207 126.6 52.207 126.6 53.127 124.141 53.127 124.141 54.65 127.061 54.65" fill="#1d1d1b"></polygon><polygon points="129.085 51.894 129.085 55.647 127.95 55.647 127.95 49.804 128.856 49.804 131.874 53.655 131.874 49.813 133.009 49.813 133.009 55.647 132.064 55.647 129.085 51.894" fill="#1d1d1b"></polygon><g clip-path="url(#a)"><path d="M138.08688,52.71556a2.28219,2.28219,0,0,0-.20591-.99914,1.5667,1.5667,0,0,0-.592-.67389,1.71321,1.71321,0,0,0-.9383-.24335h-.98744v3.85149h.98744a1.699,1.699,0,0,0,.94766-.25271,1.58567,1.58567,0,0,0,.58732-.69028,2.37063,2.37063,0,0,0,.20123-.99212m-3.8585,2.92957V49.80238h2.12229a3.02031,3.02031,0,0,1,1.59581.39076,2.49551,2.49551,0,0,1,.964,1.0553,3.33082,3.33082,0,0,1,.32056,1.46712,3.2117,3.2117,0,0,1-.35332,1.54668,2.49773,2.49773,0,0,1-.99914,1.0202,3.06266,3.06266,0,0,1-1.528.36269Z" transform="translate(-0.0007 0.00046)" fill="#1d1d1b"></path></g><rect x="140.11769" y="49.80307" width="1.13486" height="5.84275" fill="#1d1d1b"></rect><polygon points="147.236 55.646 147.236 51.81 145.738 54.668 145.104 54.668 143.607 51.81 143.607 55.646 142.472 55.646 142.472 49.803 143.689 49.803 145.418 53.128 147.161 49.803 148.371 49.803 148.371 55.646 147.236 55.646" fill="#1d1d1b"></polygon><rect x="149.58964" y="49.80307" width="1.13486" height="5.84275" fill="#1d1d1b"></rect><polygon points="155.998 54.65 155.998 55.644 151.941 55.644 151.941 49.804 155.923 49.804 155.923 50.798 153.078 50.798 153.078 52.207 155.537 52.207 155.537 53.127 153.078 53.127 153.078 54.65 155.998 54.65" fill="#1d1d1b"></polygon><polygon points="158.022 51.894 158.022 55.647 156.888 55.647 156.888 49.804 157.793 49.804 160.812 53.655 160.812 49.813 161.946 49.813 161.946 55.647 161.001 55.647 158.022 51.894" fill="#1d1d1b"></polygon><polygon points="167.534 50.799 165.667 50.799 165.667 55.645 164.539 55.645 164.539 50.799 162.672 50.799 162.672 49.805 167.534 49.805 167.534 50.799" fill="#1d1d1b"></polygon><g clip-path="url(#a)"><path d="M169.0572,52.72375a2.339,2.339,0,0,0,.11467.73239,1.99907,1.99907,0,0,0,.33226.62944,1.6393,1.6393,0,0,0,1.98892.4282,1.58115,1.58115,0,0,0,.53351-.4516,2.114,2.114,0,0,0,.32525-.63412,2.29236,2.29236,0,0,0,.11-.70431,2.238,2.238,0,0,0-.11935-.72771,2.06,2.06,0,0,0-.33694-.62476,1.53349,1.53349,0,0,0-1.24482-.59667,1.54361,1.54361,0,0,0-.73708.16847,1.61642,1.61642,0,0,0-.53115.44926,2.03637,2.03637,0,0,0-.32525.62476,2.33434,2.33434,0,0,0-.11.70665m1.69411,2.96233a2.70659,2.70659,0,0,1-1.16527-.2457,2.79389,2.79389,0,0,1-.8962-.67155,3.21411,3.21411,0,0,1-.5803-.95468,3.016,3.016,0,0,1-.2059-1.0904,2.86568,2.86568,0,0,1,.22-1.1138,3.1757,3.1757,0,0,1,.599-.94766,2.85259,2.85259,0,0,1,.90555-.65751,2.69605,2.69605,0,0,1,1.14889-.24335,2.62522,2.62522,0,0,1,1.15592.25505,2.76572,2.76572,0,0,1,.8915.68325,3.21036,3.21036,0,0,1,.57562.95468,2.97425,2.97425,0,0,1-.007,2.1925,3.12357,3.12357,0,0,1-.59669.94766,2.80393,2.80393,0,0,1-.90553.65283,2.70922,2.70922,0,0,1-1.13954.23868" transform="translate(-0.0007 0.00046)" fill="#1d1d1b"></path></g></svg>