<?xml version="1.0" encoding="UTF-8" standalone="no"?>
<svg
   xmlns:dc="http://purl.org/dc/elements/1.1/"
   xmlns:cc="http://creativecommons.org/ns#"
   xmlns:rdf="http://www.w3.org/1999/02/22-rdf-syntax-ns#"
   xmlns:svg="http://www.w3.org/2000/svg"
   xmlns="http://www.w3.org/2000/svg"
   version="1.1"
   id="svg4224"
   viewBox="0 0 487.16558 104.30483"
   height="29.437141mm"
   width="137.48895mm">
  <defs
     id="defs4226" />
  <metadata
     id="metadata4229">
    <rdf:RDF>
      <cc:Work
         rdf:about="">
        <dc:format>image/svg+xml</dc:format>
        <dc:type
           rdf:resource="http://purl.org/dc/dcmitype/StillImage" />
        <dc:title></dc:title>
      </cc:Work>
    </rdf:RDF>
  </metadata>
  <g
     transform="translate(-87.54277,-614.4955)"
     id="layer1">
    <path
       style="fill:#f69d00;stroke:none"
       id="path78"
       d="m 103.59297,718.08572 0,-11.77681 c 0,0 9.99028,0.1715 9.99028,-7.96079 0,-8.13229 0,-72.47598 0,-72.47598 l -9.99028,0 c 0,0 -5.98846,0.20009 -5.98846,6.86027 0,6.66019 0,9.70444 0,9.70444 l -10.06174,0 0,-27.94135 72.73325,0 0,27.94135 -11.10507,0 0,-9.43288 c 0,0 1.87228,-6.73165 -6.73166,-6.73165 -8.60393,0 -8.87548,0 -8.87548,0 l 0,71.63275 c 0,0 -0.20009,8.40384 10.61914,8.40384 0,6.94603 0,11.77681 0,11.77681 l -40.58998,0 z m 0,0 0,0 z m 102.70409,0.71461 -40.38989,0 0,-11.93403 c 0,0 10.26183,-0.0857 10.26183,-7.01749 0,-6.93174 0,-66.28744 0,-66.28744 0,0 -0.48594,-7.5749 -9.43288,-7.5749 0,-4.15904 0,-11.49097 0,-11.49097 l 40.10405,0 0,11.77682 c 0,0 -10.61915,-1.87229 -10.61915,6.17425 0,8.04654 0,67.13069 0,67.13069 0,0 1.18626,6.46009 9.7902,6.46009 0,5.25955 0.28584,12.76298 0.28584,12.76298 z m 0,0 0,0 z m 42.60519,0 -31.98605,0 0,-12.49142 c 0,0 9.43289,-0.35731 9.43289,-10.61914 0,-10.26184 0,-63.2432 0,-63.2432 0,0 -0.0715,-6.4601 -12.29134,-6.4601 0,-4.71644 0,-11.49097 0,-11.49097 l 34.8445,0 18.66568,60.58484 18.39412,-60.58484 35.9593,0 0,12.31992 c 0,0 -12.21987,-1.30059 -12.21987,7.5749 0,8.87548 0,62.1284 0,62.1284 0,0 -1.18626,8.40384 8.06082,8.40384 0,9.16133 0,13.16316 0,13.16316 l -36.78824,0 0,-12.89161 c 0,0 8.11799,0.48594 8.11799,-8.40384 0,-8.87549 0,-48.45072 0,-48.45072 l -19.58037,69.74617 -8.87549,0 -20.05203,-70.37503 0,49.36543 c 0,0 -0.0858,8.11799 8.31809,8.11799 0,8.60393 0,13.60622 0,13.60622 z m 0,0 0,0 z m 80.30815,-0.28584 0,-13.86348 c 0,0 10.00457,2.41538 10.00457,-5.63115 0,-8.04653 0,-66.84484 0,-66.84484 0,0 -2.14384,-6.4601 -10.00457,-6.4601 0.27155,-3.88749 0,-11.21942 0,-11.21942 l 40.96158,0 0,10.93357 c 0,0 -9.79019,0.0858 -9.79019,7.5749 0,7.48914 0,24.76846 0,24.76846 l 18.39412,-25.88326 c 0,0 0.82895,-5.9027 -3.05854,-5.9027 0,-3.88749 0,-11.49097 0,-11.49097 l 33.72971,0 0,11.77682 c 0,0 -6.37434,0.74319 -8.58964,3.60165 -2.2296,2.85844 -20.89527,29.01326 -20.89527,29.01326 l 25.05431,42.90533 c 0,0 3.33009,3.95895 6.37434,3.95895 0,5.54539 0,12.33421 0,12.33421 l -35.945,0 0,-13.43471 c 0,0 10.41905,2.41538 4.51635,-6.47439 -5.9027,-8.87549 -20.40933,-30.59971 -20.40933,-30.59971 l 0,30.88555 c 0,0 -1.1148,7.28905 9.50434,7.28905 0,4.44489 0,12.33421 0,12.33421 l -39.84678,0.42877 z m 0,0 0,0 z m 87.25417,0 0,-13.59193 c 0,0 10.54768,2.41539 10.54768,-6.4601 0,-8.87548 0,-65.45849 0,-65.45849 0,0 -1.31489,-6.73165 -10.54768,-6.73165 0,-5.27384 0,-11.77682 0,-11.77682 l 66.27316,0 0,25.72605 -12.76298,0 0,-7.48914 c 0,0 -0.62886,-5.91699 -6.73165,-5.91699 -6.10279,0 -16.45038,0 -16.45038,0 l 0,31.51441 10.34759,0 c 0,0 5.27384,0.0858 5.27384,-9.99028 3.8732,0 10.06174,0 10.06174,0 l 0,32.00034 -10.34759,0 c 0,0 0.35731,-11.37663 -6.10279,-11.37663 -6.46009,0 -9.50434,0 -9.50434,0 l 0,34.8445 18.66568,0 c 0,0 5.63114,0.84325 5.63114,-11.17654 4.4306,0 11.64818,0 11.64818,0 l 0,25.4545 -66.0016,0.42877 z m 0,0 0,0 z m 74.96283,0 0,-13.59193 c 0,0 9.16133,2.2153 9.16133,-9.23279 0,-11.46239 0,-61.01361 0,-61.01361 0,0 0.90042,-8.68969 -9.71871,-8.68969 0,-4.98799 0,-11.49097 0,-11.49097 l 33.37241,0 c 0,0 24.29682,65.30129 24.29682,64.45805 0,-0.82896 0,-49.07958 0,-49.07958 0,0 -3.67311,-4.15905 -10.8907,-4.15905 0,-6.38863 0,-11.21942 0,-11.21942 l 37.05978,0 0,11.21942 c 0,0 -11.37662,0.62886 -11.37662,6.17425 0,5.55968 0,86.19655 0,86.19655 l -20.96672,0 -26.99807,-70.10348 0,46.87858 c 0,0 0.3573,10.06174 9.51863,10.06174 0,6.66018 0,13.16316 0,13.16316 l -33.45815,0.42877 z" />
  </g>
</svg>
