<?xml version="1.0" encoding="UTF-8"?><svg id="Ebene_1" xmlns="http://www.w3.org/2000/svg" viewBox="0 0 212.6 28.35"><defs><style>.cls-1,.cls-2{fill:#ef7800;}.cls-2{fill-rule:evenodd;}</style></defs><polygon class="cls-1" points="0 5.15 1.64 28.07 8 28.07 12.73 16.67 12.71 28.07 19.08 28.07 29.92 5.15 23.2 5.15 17.66 18.8 17.48 5.15 12.28 5.15 6.7 18.8 6.48 5.15 0 5.15 0 5.15"/><polygon class="cls-1" points="53.9 6.18 47.96 6.18 47.09 10.35 53.03 10.35 53.9 6.18 53.9 6.18"/><polygon class="cls-1" points="43.41 28.07 49.35 28.07 52.62 11.96 46.67 11.96 43.41 28.07 43.41 28.07"/><path class="cls-2" d="m31.93,18.23c.45-1.65,1.5-2.61,3.09-2.61,1.5,0,2.25.93,2.25,2.1,0,.15-.03.36-.06.51h-5.28Zm4.26,5.01c-.3.54-1.05,1.11-2.34,1.11-1.86,0-2.43-1.38-2.43-3.03h11.11c.27-.96.3-1.86.3-2.7,0-4.89-4.17-7-7.62-7-3.87,0-9.34,2.53-9.34,9.68,0,3.78,2.08,7,7.6,7,6.72,0,8.04-4,8.43-5.05h-5.7Z"/><path class="cls-2" d="m64.4,18.84c0,1.86-.78,4.83-3.09,4.83-1.56,0-2.19-1.14-2.19-2.55,0-2.25.78-5.16,3.15-5.16,1.53,0,2.13,1.14,2.13,2.88h0Zm2.92-13.69l-.1.39-1.73,8.5c-1.05-1.69-2.73-2.23-4.53-2.23-4.65,0-7.74,4.11-7.74,10.02,0,1.89.67,6.46,5.69,6.46,1.8,0,3.14-.82,4.16-2.29l-.3,2.06h5.82l4.7-22.91h-5.96Z"/><path class="cls-1" d="m71.79,28.07h5.94l1.92-9.21c.27-1.35,1.02-2.31,2.49-2.31.96,0,1.5.45,1.5,1.44,0,.42-.15,1.05-.24,1.44l-1.8,8.64h5.94l2.04-9.71c.24-1.14,1.08-1.8,2.25-1.8.96,0,1.53.51,1.53,1.5,0,.45-.3,1.98-.36,2.28l-1.59,7.73h5.94l1.89-9.17c.12-.69.36-1.74.36-2.46,0-3.21-1.9-4.81-4.93-4.81-2.07,0-3.86,1.15-5.15,2.77-.39-1.92-2.11-2.77-4.15-2.77s-3.74,1.15-4.94,2.62h-.06l.44-2.28h-5.76l-3.26,16.11h0Z"/><path class="cls-1" d="m119.63,11.96h-5.94l-1.38,6.58c-.48,1.98-.6,4.89-3.27,4.89-.87,0-1.71-.51-1.71-1.47,0,0,0-.81.24-1.62l1.77-8.38h-5.94c-1.8,8.58-2.34,10.72-2.34,12.07,0,2.97,2.11,4.27,4.81,4.27,2.01,0,3.86-.97,5.15-2.5h.06l-.48,2.27h5.76l3.27-16.11h0Z"/><polygon class="cls-1" points="105.59 10.26 110.88 10.26 111.72 6.26 106.43 6.26 105.59 10.26 105.59 10.26"/><polygon class="cls-1" points="112.94 10.26 118.22 10.26 119.06 6.26 113.78 6.26 112.94 10.26 112.94 10.26"/><polygon class="cls-1" points="124.2 5.1 130.19 5.1 125.46 28.07 119.51 28.07 124.2 5.1 124.2 5.1"/><polygon class="cls-1" points="133.47 5.1 139.47 5.1 134.8 28.07 128.86 28.07 133.47 5.1 133.47 5.1"/><path class="cls-2" d="m144.77,18.27c.45-1.65,1.5-2.61,3.09-2.61,1.5,0,2.25.93,2.25,2.1,0,.15-.03.36-.06.51h-5.29Zm4.27,5.01c-.3.54-1.05,1.11-2.34,1.11-1.86,0-2.43-1.38-2.43-3.03h11.11c.27-.96.3-1.86.3-2.7,0-4.89-4.17-6.99-7.62-6.99-3.87,0-9.34,2.52-9.34,9.66,0,3.78,2.09,7.01,7.61,7.01,6.72,0,8.03-4.01,8.42-5.06h-5.7Z"/><path class="cls-1" d="m156.24,28.07h5.94l1.35-6.76c.69-3.27,1.95-4.35,4.47-4.35.75,0,1.56.12,2.28.39l1.11-5.55c-.54-.18-1.11-.24-2.1-.24-1.53,0-3.48,1.17-4.53,2.82l-.06.3.51-2.73h-5.76l-3.21,16.13h0Z"/><path d="m183.55,4.6h7.39c.77,0,1.14.3,1.73,1.02.21.26.7.85,1.28,1.57l2.91-3.57c-1-1.23-1.74-2.13-1.74-2.13-.73-.89-1.52-1.48-2.97-1.48h-8.61c-1.19,0-2.42.78-2.42,2.31s1.21,2.29,2.42,2.29Z"/><path class="cls-1" d="m210.18,23.56h-7.39c-.77,0-1.15-.3-1.74-1.02-.21-.26-.69-.85-1.28-1.58l-2.92,3.57c1,1.23,1.74,2.14,1.74,2.14.73.89,1.52,1.48,2.97,1.48h8.61c1.19,0,2.42-.78,2.42-2.31s-1.21-2.28-2.42-2.28Z"/><path class="cls-1" d="m195.4,15.6c-.51-.58-.75-1.06-.75-1.52s.25-.96.75-1.52c.05-.06,4.82-5.93,5.65-6.94.59-.72.96-1.02,1.74-1.02h7.39c1.21,0,2.42-.75,2.42-2.29s-1.23-2.31-2.42-2.31h-8.61c-1.46,0-2.24.59-2.97,1.48,0,0-6.63,8.17-7.34,8.94-.91.99-1.36,1.34-2.96,1.34h-4.75c-1.19,0-2.42.78-2.42,2.33s1.21,2.3,2.42,2.3h4.75c1.59,0,2.05.35,2.96,1.34.27.3,1.4,1.67,2.7,3.25l2.92-3.58c-.83-1.01-1.45-1.78-1.47-1.81Z"/><path d="m210.18,11.77h-4.75c-1.59,0-2.05-.35-2.96-1.34-.27-.29-1.4-1.67-2.7-3.25l-2.92,3.58c.83,1.02,1.45,1.78,1.46,1.8.5.56.75,1.08.75,1.52s-.23.94-.75,1.52c-.05.06-4.82,5.93-5.65,6.94-.59.72-.96,1.02-1.73,1.02h-7.39c-1.21,0-2.42.75-2.42,2.28s1.23,2.31,2.42,2.31h8.61c1.45,0,2.24-.59,2.97-1.48,0,0,6.64-8.17,7.34-8.94.91-.99,1.37-1.34,2.96-1.34h4.75c1.21,0,2.42-.75,2.42-2.3s-1.23-2.33-2.42-2.33Z"/></svg>